# xmcd
#
# Track frame offsets: 
#        150
#        13318
#        30373
#        46373
#        60930
#        74847
#        88373
#        104059
#        122287
#        136293
#
# Disc length: 2062 seconds
#
# Revision: 0
# Processed by: cddbd v1.5.1PL2 Copyright (c) Steve Scherf et al.
# Submitted via: ExactAudioCopy v0.95b3
#
DISCID=8b080c0a
DTITLE=Dixie Road - Crazy Enuff
DYEAR=2004
DGENRE=Country
TTITLE0=Crazy Enuff
TTITLE1=Life Is For The Living
TTITLE2=Your Love Is Everything
TTITLE3=Thats What You Are
TTITLE4=Cowboy Up (& Party Down)
TTITLE5=Quitting Time
TTITLE6=Two Of The Lucky Ones
TTITLE7=Everything In Love
TTITLE8=Better Days To Cry
TTITLE9=Open Road
EXTD=
EXTT0=
EXTT1=
EXTT2=
EXTT3=
EXTT4=
EXTT5=
EXTT6=
EXTT7=
EXTT8=
EXTT9=
PLAYORDER=
